<?xml version="1.0" encoding="UTF-8" standalone="no"?>
<!DOCTYPE svg PUBLIC "-//W3C//DTD SVG 1.1//EN"
 "http://www.w3.org/Graphics/SVG/1.1/DTD/svg11.dtd">
<!-- Generated by graphviz version 2.40.1 (20161225.0304)
 -->
<!-- Title: %3 Pages: 1 -->
<svg width="308pt" height="188pt"
 viewBox="0.00 0.00 307.98 188.00" xmlns="http://www.w3.org/2000/svg" xmlns:xlink="http://www.w3.org/1999/xlink">
<g id="graph0" class="graph" transform="scale(1 1) rotate(0) translate(4 184)">
<title>%3</title>
<polygon fill="#ffffff" stroke="transparent" points="-4,4 -4,-184 303.975,-184 303.975,4 -4,4"/>
<!-- number.h -->
<g id="node1" class="node">
<title>number.h</title>
<ellipse fill="none" stroke="#000000" cx="146.7732" cy="-162" rx="43.0409" ry="18"/>
<text text-anchor="middle" x="146.7732" y="-157.8" font-family="Times,serif" font-size="14.00" fill="#000000">number.h</text>
</g>
<!-- number.o -->
<g id="node2" class="node">
<title>number.o</title>
<ellipse fill="none" stroke="#000000" cx="93.7732" cy="-90" rx="43.0409" ry="18"/>
<text text-anchor="middle" x="93.7732" y="-85.8" font-family="Times,serif" font-size="14.00" fill="#000000">number.o</text>
</g>
<!-- number.h&#45;&gt;number.o -->
<g id="edge1" class="edge">
<title>number.h&#45;&gt;number.o</title>
<path fill="none" stroke="#000000" d="M133.9434,-144.5708C127.4984,-135.8153 119.5679,-125.0418 112.4607,-115.3867"/>
<polygon fill="#000000" stroke="#000000" points="115.2318,-113.2472 106.4849,-107.2687 109.5944,-117.3969 115.2318,-113.2472"/>
</g>
<!-- program.o -->
<g id="node4" class="node">
<title>program.o</title>
<ellipse fill="none" stroke="#000000" cx="201.7732" cy="-90" rx="46.8976" ry="18"/>
<text text-anchor="middle" x="201.7732" y="-85.8" font-family="Times,serif" font-size="14.00" fill="#000000">program.o</text>
</g>
<!-- number.h&#45;&gt;program.o -->
<g id="edge3" class="edge">
<title>number.h&#45;&gt;program.o</title>
<path fill="none" stroke="#000000" d="M160.0872,-144.5708C166.7754,-135.8153 175.0052,-125.0418 182.3806,-115.3867"/>
<polygon fill="#000000" stroke="#000000" points="185.2928,-117.3401 188.5819,-107.2687 179.7301,-113.0908 185.2928,-117.3401"/>
</g>
<!-- program -->
<g id="node6" class="node">
<title>program</title>
<ellipse fill="none" stroke="#000000" cx="147.7732" cy="-18" rx="40.1317" ry="18"/>
<text text-anchor="middle" x="147.7732" y="-13.8" font-family="Times,serif" font-size="14.00" fill="#000000">program</text>
</g>
<!-- number.o&#45;&gt;program -->
<g id="edge5" class="edge">
<title>number.o&#45;&gt;program</title>
<path fill="none" stroke="#000000" d="M106.8451,-72.5708C113.4117,-63.8153 121.4919,-53.0418 128.7332,-43.3867"/>
<polygon fill="#000000" stroke="#000000" points="131.6217,-45.3687 134.8217,-35.2687 126.0217,-41.1687 131.6217,-45.3687"/>
</g>
<!-- number.c -->
<g id="node3" class="node">
<title>number.c</title>
<ellipse fill="none" stroke="#000000" cx="42.7732" cy="-162" rx="42.5477" ry="18"/>
<text text-anchor="middle" x="42.7732" y="-157.8" font-family="Times,serif" font-size="14.00" fill="#000000">number.c</text>
</g>
<!-- number.c&#45;&gt;number.o -->
<g id="edge2" class="edge">
<title>number.c&#45;&gt;number.o</title>
<path fill="none" stroke="#000000" d="M55.1189,-144.5708C61.2581,-135.9038 68.798,-125.2592 75.5835,-115.6796"/>
<polygon fill="#000000" stroke="#000000" points="78.6171,-117.452 81.5413,-107.2687 72.9049,-113.4059 78.6171,-117.452"/>
</g>
<!-- program.o&#45;&gt;program -->
<g id="edge6" class="edge">
<title>program.o&#45;&gt;program</title>
<path fill="none" stroke="#000000" d="M188.7013,-72.5708C182.1347,-63.8153 174.0546,-53.0418 166.8132,-43.3867"/>
<polygon fill="#000000" stroke="#000000" points="169.5248,-41.1687 160.7248,-35.2687 163.9248,-45.3687 169.5248,-41.1687"/>
</g>
<!-- program.c -->
<g id="node5" class="node">
<title>program.c</title>
<ellipse fill="none" stroke="#000000" cx="253.7732" cy="-162" rx="46.4045" ry="18"/>
<text text-anchor="middle" x="253.7732" y="-157.8" font-family="Times,serif" font-size="14.00" fill="#000000">program.c</text>
</g>
<!-- program.c&#45;&gt;program.o -->
<g id="edge4" class="edge">
<title>program.c&#45;&gt;program.o</title>
<path fill="none" stroke="#000000" d="M241.1855,-144.5708C234.972,-135.9675 227.3512,-125.4156 220.4724,-115.8911"/>
<polygon fill="#000000" stroke="#000000" points="223.1176,-113.5758 214.4253,-107.5182 217.4429,-117.6743 223.1176,-113.5758"/>
</g>
</g>
</svg>
